Coordinates
version=1
nRows=14
nColumns=42
inDegrees=yes

Units are S.I. units (second, meters, Newtons, ...)
If the header above contains a line with 'inDegrees', this indicates whether rotational values are in degrees (yes) or radians (no).

endheader
time	pelvis_tilt	pelvis_list	pelvis_rotation	pelvis_tx	pelvis_ty	pelvis_tz	hip_flexion_r	hip_adduction_r	hip_rotation_r	knee_angle_r	knee_adduction_r	knee_angle_r_beta	ankle_angle_r	subtalar_angle_r	mtp_angle_r	hip_flexion_l	hip_adduction_l	hip_rotation_l	knee_angle_l	knee_adduction_l	knee_angle_l_beta	ankle_angle_l	subtalar_angle_l	mtp_angle_l	lumbar_extension	lumbar_bending	lumbar_rotation	arm_flex_r	arm_add_r	arm_rot_r	elbow_flex_r	pro_sup_r	wrist_flex_r	wrist_dev_r	arm_flex_l	arm_add_l	arm_rot_l	elbow_flex_l	pro_sup_l	wrist_flex_l	wrist_dev_l
      2.10000000	      0.38416242	      6.88144660	     15.08146747	      0.45527523	      0.89142106	      0.41444530	     22.35584102	    -18.59940892	    -19.41012839	     37.41212038	      3.83165323	      0.65296468	     12.63081940	     -1.21444798	     -7.60818480	      0.79650963	      1.82819431	     -1.49857148	      1.93016613	      5.06319634	      0.03368775	      8.78593667	     29.35227769	     -7.60818480	    -16.37226290	     -6.61724053	     -4.02505332	    -14.45169522	    -11.47855869	    -20.89931058	     74.53318141	     90.00000001	      0.00000000	      0.00000000	      3.86779415	    -25.96243380	     17.59334169	     86.06989043	     90.00000001	      0.00000000	      0.00000000
      2.11000000	      0.28409007	      6.99627137	     15.45750982	      0.45919353	      0.89119789	      0.41521779	     21.68987679	    -18.30830736	    -19.72279725	     34.63607776	      3.83756452	      0.60451360	     11.94953544	      0.00303440	     -7.60625642	      0.62465784	      1.80861694	     -1.25243859	      1.91287009	      5.09223815	      0.03338588	      9.03525418	     29.58894637	     -7.60625642	    -16.36113302	     -6.57982041	     -4.13282675	    -14.28048237	    -11.39820891	    -20.53462590	     73.89855826	     90.00000001	      0.00000000	      0.00000000	      4.11603718	    -26.06992770	     17.96042996	     86.33248353	     90.00000001	      0.00000000	      0.00000000
      2.12000000	      0.03548543	      7.18493278	     15.84225314	      0.46307534	      0.89075364	      0.41613652	     21.29090236	    -18.12267248	    -19.91514616	     32.48274748	      3.70435378	      0.56693089	     11.38657816	      0.92690881	     -7.60482064	      0.63330088	      1.97564365	     -1.05332332	      1.97372261	      4.96503467	      0.03444796	      9.21771965	     29.74522340	     -7.60482064	    -16.18872870	     -6.68204563	     -4.26689320	    -14.10043770	    -11.25374846	    -20.26453433	     73.44976953	     90.00000001	      0.00000000	      0.00000000	      4.33972062	    -26.19457122	     18.26453233	     86.61679858	     90.00000001	      0.00000000	      0.00000000
      2.13000000	      0.38954518	      7.14773490	     16.37537331	      0.46734616	      0.89133260	      0.41718453	     19.99767918	    -17.53824060	    -20.94625796	     30.42825813	      3.32798929	      0.53107329	     11.00629919	      2.25735631	     -7.60161625	      0.03160992	      1.52556019	     -0.75995092	      1.98105778	      5.19141017	      0.03457598	      9.59493282	     30.12443087	     -7.60161625	    -16.58290788	     -6.35537296	     -4.47772728	    -13.80252097	    -11.18273662	    -19.96515795	     72.78130620	     90.00000001	      0.00000000	      0.00000000	      4.65305423	    -26.18227499	     18.57196664	     86.75478326	     90.00000001	      0.00000000	      0.00000000
      2.14000000	      0.06775378	      7.39437448	     16.67904654	      0.47137560	      0.89091778	      0.41834788	     19.87367988	    -17.48808388	    -21.05132284	     29.42381810	      3.09256835	      0.51354250	     10.83979303	      2.63649254	     -7.60078590	      0.11271554	      1.78105582	     -0.60676665	      2.08831381	      5.04404773	      0.03644795	      9.68730384	     30.21017711	     -7.60078590	    -16.29720131	     -6.58433978	     -4.50633441	    -13.66935767	    -11.04333497	    -19.81082153	     72.48378552	     90.00000001	      0.00000000	      0.00000000	      4.80994092	    -26.16984362	     18.77047054	     86.97506784	     90.00000001	      0.00000000	      0.00000000
      2.15000000	      0.30274478	      7.28313238	     17.24129310	      0.47544851	      0.89150531	      0.41951187	     18.87299183	    -16.93063567	    -21.93968006	     28.27955282	      2.72128471	      0.49357131	     10.76463660	      3.68016625	     -7.59706605	     -0.21823453	      1.41311645	     -0.12175108	      2.27741063	      4.99950720	      0.03974831	     10.08139699	     30.42672538	     -7.59706605	    -16.52658094	     -6.21201062	     -4.72952698	    -13.25281800	    -11.02435683	    -19.59624366	     71.77079815	     90.00000001	      0.00000000	      0.00000000	      5.08170855	    -26.09939180	     19.06887382	     87.07629745	     90.00000001	      0.00000000	      0.00000000
      2.16000000	      0.12812497	      7.35695865	     17.63809405	      0.47943312	      0.89161722	      0.42080825	     18.58658909	    -16.73163991	    -22.05010681	     27.82077585	      2.52204190	      0.48556414	     10.89115108	      3.85481062	     -7.59595741	     -0.16392666	      1.47282338	      0.16364740	      2.49362017	      4.77775685	      0.04352188	     10.22967789	     30.45952515	     -7.59595741	    -16.34701896	     -6.21601567	     -4.82760632	    -12.94629126	    -10.94488130	    -19.43776697	     71.20998660	     90.00000001	      0.00000000	      0.00000000	      5.26203824	    -26.01377726	     19.32379633	     87.11341441	     90.00000001	      0.00000000	      0.00000000
      2.17000000	      0.20481797	      7.23320620	     18.12776190	      0.48346208	      0.89217774	      0.42209305	     17.95821844	    -16.33761002	    -22.53032593	     27.46027741	      2.37881553	      0.47927225	     11.00500458	      4.00820782	     -7.59336663	     -0.22076703	      1.13592618	      0.60340190	      2.86330704	      4.80633580	      0.04997414	     10.66177443	     30.32429691	     -7.59336663	    -16.38173418	     -5.91254626	     -4.96918945	    -12.59663718	    -10.96912724	    -19.28850860	     70.59918060	     90.00000001	      0.00000000	      0.00000000	      5.46369193	    -25.80965225	     19.49046542	     87.13869505	     90.00000001	      0.00000000	      0.00000000
      2.18000000	      0.16322013	      7.20538727	     18.39584201	      0.48739455	      0.89264183	      0.42356000	     17.67502226	    -16.08436760	    -22.51010931	     27.49289939	      2.28584092	      0.47984162	     11.26427747	      3.92765455	     -7.59266685	     -0.20046310	      1.09725598	      0.84233987	      3.21114271	      4.51846641	      0.05604501	     10.71461719	     30.21572656	     -7.59266685	    -16.32065170	     -5.77782312	     -4.89425123	    -12.30119891	    -11.00693436	    -19.17945942	     70.16604465	     90.00000001	      0.00000000	      0.00000000	      5.63173702	    -25.54391613	     19.62668410	     87.09908980	     90.00000001	      0.00000000	      0.00000000
      2.19000000	      0.02625904	      7.24993177	     18.55240745	      0.49163639	      0.89303640	      0.42516834	     17.48021874	    -15.98259909	    -22.46499781	     27.57242457	      2.28243505	      0.48122959	     11.30707380	      3.91276857	     -7.59245794	     -0.21923235	      1.06261432	      0.90878254	      3.37933564	      4.47015428	      0.05898053	     10.72358588	     30.14592351	     -7.59245794	    -16.13036261	     -5.80638059	     -4.79737229	    -12.12251644	    -10.99977494	    -19.12545350	     70.10782622	     90.00000001	      0.00000000	      0.00000000	      5.65092420	    -25.33996737	     19.69882015	     87.12820458	     90.00000001	      0.00000000	      0.00000000
      2.20000000	      0.17232987	      6.77002892	     19.15403671	      0.49524876	      0.89397372	      0.42646733	     16.71683126	    -15.27967886	    -22.70567962	     27.16789012	      2.49470460	      0.47416913	     11.65791956	      3.07799093	     -7.58954072	      0.26355372	      0.42710735	      1.42584594	      4.64682037	      4.44159012	      0.08110232	     11.63528319	     29.27154850	     -7.58954072	    -16.15662688	     -5.09405795	     -4.99555986	    -11.53287690	    -11.23378153	    -18.90329186	     68.94272364	     90.00000001	      0.00000000	      0.00000000	      5.82166523	    -24.93904546	     19.86162583	     86.90727481	     90.00000001	      0.00000000	      0.00000000
      2.21000000	      0.16420425	      6.63206343	     19.35747862	      0.49918534	      0.89467417	      0.42801612	     16.32747153	    -15.03039355	    -22.66264736	     27.14593231	      2.72986376	      0.47378590	     11.95561399	      2.71653631	     -7.58823975	      0.49482861	      0.24321855	      1.51685287	      5.40090198	      4.32990380	      0.09426352	     11.76665329	     28.77464735	     -7.58823975	    -16.08093863	     -4.88298177	     -4.87209898	    -11.21854576	    -11.41037716	    -18.81265547	     68.43503538	     90.00000001	      0.00000000	      0.00000000	      5.91791622	    -24.57035993	     19.96591147	     86.74377078	     90.00000001	      0.00000000	      0.00000000
      2.22000000	      0.12917392	      6.39121175	     19.57803648	      0.50299837	      0.89533905	      0.42968704	     15.93245227	    -14.65240357	    -22.64265443	     26.94704940	      3.00157944	      0.47031474	     12.11259189	      2.29427330	     -7.58667724	      0.94002811	     -0.04329050	      1.58768597	      6.42771188	      4.26465738	      0.11218474	     12.10085495	     28.02508740	     -7.58667724	    -15.96855424	     -4.60359916	     -4.76061093	    -10.91909362	    -11.61472514	    -18.73679461	     67.97861055	     90.00000001	      0.00000000	      0.00000000	      5.95806505	    -24.19725824	     20.04937194	     86.69889268	     90.00000001	      0.00000000	      0.00000000
      2.23000000	      0.07582875	      6.13241858	     19.73910737	      0.50678713	      0.89592484	      0.43143636	     15.57439875	    -14.22628795	    -22.67844429	     26.66986738	      3.20841380	      0.46547700	     12.17157417	      1.89318586	     -7.58499730	      1.44433549	     -0.34270020	      1.60541969	      7.51982643	      4.23790544	      0.13124573	     12.44458665	     27.17944888	     -7.58499730	    -15.83320238	     -4.33355650	     -4.60211447	    -10.66507979	    -11.83782729	    -18.68849104	     67.63924053	     90.00000001	      0.00000000	      0.00000000	      5.95625579	    -23.82545836	     20.10760896	     86.69872512	     90.00000001	      0.00000000	      0.00000000
